:SAMPLES-PER-SECOND 30
:FULLY-SPECIFIED
:DEGREES
461
root  -32.8909 32.0987 6.37825 -160.234 -29.3895 179.143
RightUpLeg  -47.0105 -12.7677 1.35289
RightLeg  48.8 4.08674 4.04903
RightFoot  -8.85549 -0.0936841 -0.696706
RightToes  -21.5719 -0.0964534 -0.195169
Spine  4.32456 -1.14488 -1.44174
Spine1  8.52908 -2.17844 -2.22851
HEad  -80.6485 -6.51399 7.06217
LeftShoulder1  -1.94126e-019 -3.10601e-018 -2.51263e-017
LeftArm  -28.3078 47.429 -75.818
LeftForeArm  34.3195 -40.2285 -7.31336
LeftHand  -1.52077 -2.42559 22.5865
RightShoulder  -4.96962e-017 0 -2.36833e-017
RightArm  -26.9328 -58.0849 36.3436
RightForeArm  61.8747 17.5029 3.15443
RightHand  0.088439 -5.92249 -21.2686
LeftUpLeg  -48.9701 19.4227 -6.63549
LeftLeg  53.609 6.3853 7.52056
LeftFoot  -7.97437 -0.0962667 -1.21951
LeftToes  -14.0734 1.70063e-006 7.6642e-008
462
root  -33.0721 31.4514 6.52212 -159.429 -28.3505 178.978
RightUpLeg  -50.487 -12.059 0.906933
RightLeg  53.6544 3.41307 3.99379
RightFoot  -10.8174 -0.122612 -0.779792
RightToes  -21.8146 -0.0958676 -0.192533
Spine  4.619 -0.719125 -1.27936
Spine1  9.11302 -1.34213 -1.85976
HEad  -81.4318 -6.21882 6.24456
LeftShoulder1  -1.94126e-019 -3.10601e-018 -2.51263e-017
LeftArm  -29.1764 46.6288 -80.0273
LeftForeArm  30.9167 -38.7676 -7.09467
LeftHand  -0.933968 -3.37038 12.5993
RightShoulder  -4.96962e-017 0 -2.36833e-017
RightArm  -30.8805 -56.7692 35.2374
RightForeArm  58.66 17.0546 3.08379
RightHand  0.356991 -7.39728 -21.1738
LeftUpLeg  -50.1431 17.0351 -7.03411
LeftLeg  55.1219 9.4212 11.5937
LeftFoot  -13.2467 -0.405738 -3.33159
LeftToes  -7.95285 1.70063e-006 7.6642e-008
463
root  -33.1543 30.7229 6.65979 -159.092 -27.8323 178.982
RightUpLeg  -53.7032 -10.7908 0.406609
RightLeg  58.7854 2.25559 3.14532
RightFoot  -12.6834 -0.126333 -0.61399
RightToes  -22.0415 -0.0954378 -0.190317
Spine  5.03223 -0.513815 -1.04662
Spine1  9.93029 -0.931291 -1.39578
HEad  -82.7581 -5.8656 5.92683
LeftShoulder1  -1.94126e-019 -3.10601e-018 -2.51263e-017
LeftArm  -29.2309 45.739 -83.6972
LeftForeArm  28.4165 -36.4332 -6.58932
LeftHand  -0.531733 -4.92293 6.28333
RightShoulder  -4.96962e-017 0 -2.36833e-017
RightArm  -35.6487 -54.632 35.7451
RightForeArm  55.4469 18.4801 3.37699
RightHand  0.495086 -8.59942 -18.4462
LeftUpLeg  -53.0003 14.5043 -6.25813
LeftLeg  60.9859 9.51985 14.4358
LeftFoot  -14.3595 -0.554339 -4.23685
LeftToes  -12.003 1.70063e-006 7.6642e-008
464
root  -33.1589 29.9524 6.78149 -158.522 -28.3084 178.773
RightUpLeg  -56.7704 -10.2054 -0.103711
RightLeg  63.6714 1.39966 2.30683
RightFoot  -14.8231 -0.124698 -0.429701
RightToes  -22.4097 -0.0952951 -0.189226
Spine  5.35445 -0.454046 -0.838922
Spine1  10.5849 -0.81841 -0.993521
HEad  -84.1583 -5.70198 6.28577
LeftShoulder1  -1.94126e-019 -3.10601e-018 -2.51263e-017
LeftArm  -25.8232 43.3004 -84.892
LeftForeArm  30.4498 -32.5651 -5.62341
LeftHand  -0.205886 -6.69749 2.32372
RightShoulder  -4.96962e-017 0 -2.36833e-017
RightArm  -41.9378 -51.3272 38.4902
RightForeArm  54.964 18.3377 3.35281
RightHand  0.573181 -9.30723 -17.5044
LeftUpLeg  -57.0229 13.7591 -6.54786
LeftLeg  66.9249 8.10224 15.6015
LeftFoot  -14.6005 -0.58245 -4.38266
LeftToes  -12.6698 1.70063e-006 7.6642e-008
465
root  -33.1494 29.1784 6.82105 -158.212 -29.4502 178.614
RightUpLeg  -59.409 -10.3949 -0.217522
RightLeg  68.513 0.658662 1.24381
RightFoot  -16.8985 -0.0995125 -0.134264
RightToes  -22.3948 -0.0951127 -0.189962
Spine  5.54106 -0.30234 -0.721389
Spine1  10.9911 -0.540918 -0.733903
HEad  -85.1102 -6.04108 7.25538
LeftShoulder1  -1.94126e-019 -3.10601e-018 -2.51263e-017
LeftArm  -21.0294 39.3029 -83.6749
LeftForeArm  35.8825 -27.8172 -4.79682
LeftHand  0.177492 -8.21695 -1.13158
RightShoulder  -4.96962e-017 0 -2.36833e-017
RightArm  -47.5143 -46.6729 42.8101
RightForeArm  56.8743 15.47 2.79711
RightHand  0.814921 -10.5263 -18.7402
LeftUpLeg  -60.4655 13.7933 -7.08537
LeftLeg  71.9101 6.46068 15.7136
LeftFoot  -15.1987 -0.609147 -4.40181
LeftToes  -13.6743 1.70063e-006 7.6642e-008
466
root  -33.1006 28.483 6.77595 -158.312 -31.0495 178.62
RightUpLeg  -61.2728 -10.8111 -0.0109859
RightLeg  72.8223 0.020159 -0.16016
RightFoot  -18.7038 -0.0362597 0.323628
RightToes  -22.0672 -0.0947243 -0.193231
Spine  5.61695 -0.266386 -0.594591
Spine1  11.1874 -0.518163 -0.438604
HEad  -85.5977 -7.08596 8.6269
LeftShoulder1  -1.94126e-019 -3.10601e-018 -2.51263e-017
LeftArm  -19.145 33.5471 -81.5918
LeftForeArm  38.3204 -21.4875 -3.89336
LeftHand  0.308374 -8.25844 -2.23677
RightShoulder  -4.96962e-017 0 -2.36833e-017
RightArm  -49.3837 -39.2751 47.8167
RightForeArm  54.1823 10.0927 1.81789
RightHand  1.37276 -13.2633 -20.3064
LeftUpLeg  -62.4919 13.021 -6.86978
LeftLeg  75.5613 5.26452 15.6377
LeftFoot  -17.0105 -0.741213 -4.79188
LeftToes  -12.3135 1.70063e-006 7.6642e-008
467
root  -33.0971 27.9266 6.64418 -158.744 -32.9924 178.315
RightUpLeg  -61.9379 -11.5386 -0.180158
RightLeg  76.3577 -0.377446 -1.48931
RightFoot  -20.0532 0.0443278 0.801897
RightToes  -23.3997 -0.0945022 -0.203579
Spine  5.64897 -0.490235 -0.448426
Spine1  11.2853 -1.01278 -0.135915
HEad  -85.0869 -6.60241 8.40435
LeftShoulder1  -1.94126e-019 -3.10601e-018 -2.51263e-017
LeftArm  -20.5477 25.0522 -79.1997
LeftForeArm  37.2712 -11.4613 -2.04781
LeftHand  0.0708573 -7.29364 -0.285918
RightShoulder  -4.96962e-017 0 -2.36833e-017
RightArm  -54.0335 -28.5837 52.4827
RightForeArm  56.1973 2.45503 0.45083
RightHand  1.45236 -14.38 -18.8718
LeftUpLeg  -62.5289 11.2367 -6.3922
LeftLeg  77.2907 4.84711 15.9998
LeftFoot  -20.3609 -1.07717 -5.83158
LeftToes  -8.15487 1.70063e-006 7.6642e-008
468
root  -33.0501 27.4708 6.45503 -159.737 -34.6881 178.102
RightUpLeg  -61.6478 -11.752 -0.408147
RightLeg  79.2176 -0.683903 -3.00598
RightFoot  -21.3365 0.147653 1.34249
RightToes  -24.0065 -0.0948191 -0.208229
Spine  5.60293 -0.47026 -0.21651
Spine1  11.2292 -1.0394 0.294047
HEad  -84.593 -6.13266 8.93828
LeftShoulder1  -1.94126e-019 -3.10601e-018 -2.51263e-017
LeftArm  -23.5336 14.6165 -75.7641
LeftForeArm  31.7766 -1.10764 -0.195211
LeftHand  -0.164078 -4.60147 2.19765
RightShoulder  -4.96962e-017 0 -2.36833e-017
RightArm  -51.5196 -16.853 56.8912
RightForeArm  55.914 -1.32051 -0.232983
RightHand  0.71928 -11.5755 -14.0448
LeftUpLeg  -61.9745 9.74066 -5.56807
LeftLeg  78.8696 4.38793 16.1059
LeftFoot  -22.2334 -1.29227 -6.40814
LeftToes  -7.43481 1.70063e-006 7.6642e-008
